<svg width="50" height="50" viewBox="0 0 50 50" fill="none" xmlns="http://www.w3.org/2000/svg">
<g clip-path="url(#clip0_2546_10306)">
<path d="M47.4413 9.44337C47.1136 9.01505 46.5008 8.93331 46.0721 9.26094C45.6437 9.58868 45.562 10.2016 45.8897 10.6302C49.8183 15.767 49.3265 23.0949 44.7457 27.6757L41.0682 31.3532C40.2913 30.6049 39.3973 30.0048 38.4279 29.5713C40.2632 28.3453 41.4748 26.2556 41.4748 23.8876C41.4748 20.121 38.4105 17.0566 34.6439 17.0566C33.9964 17.0566 33.3637 17.1478 32.7522 17.3243C31.5996 14.4067 28.7535 12.3362 25.4312 12.3362C22.1213 12.3362 19.2842 14.3912 18.1233 17.2914C17.5476 17.1364 16.954 17.0566 16.349 17.0566C12.5823 17.0566 9.51799 20.121 9.51799 23.8876C9.51799 26.2537 10.7277 28.3421 12.5606 29.5685C11.504 30.0409 10.5394 30.7124 9.71585 31.5598L6.24709 28.0908C1.18772 23.0315 1.18772 14.799 6.24709 9.73966C8.69797 7.28878 11.9566 5.93907 15.4226 5.93907C18.8887 5.93907 22.1473 7.28887 24.5981 9.73975C24.9795 10.1211 25.5979 10.1212 25.9793 9.73985L26.3948 9.32432C29.7652 5.95391 34.7004 4.70333 39.2746 6.06085C39.7917 6.21417 40.3354 5.91954 40.4888 5.40235C40.6423 4.88526 40.3475 4.34161 39.8303 4.18819C34.6836 2.66065 29.1383 4.00411 25.2697 7.69298C19.4126 2.54649 10.4559 2.76827 4.86575 8.35841C-0.955249 14.1794 -0.955249 23.651 4.86575 29.4721L19.3782 43.9846C20.957 45.5633 23.0561 46.4328 25.2889 46.4328C27.5216 46.4328 29.6207 45.5633 31.1994 43.9846L46.1272 29.0567C48.701 26.4829 50.2436 23.0667 50.4707 19.4376C50.6957 15.8413 49.6199 12.2919 47.4413 9.44337ZM39.6866 32.7347L36.1524 36.269C36.0441 34.2649 35.3856 32.3583 34.2499 30.7299C34.3814 30.723 34.5131 30.7184 34.6452 30.7184C36.5373 30.7185 38.3335 31.4448 39.6866 32.7347ZM34.6439 19.0099C37.3334 19.0099 39.5214 21.1979 39.5214 23.8874C39.5214 26.577 37.3334 28.7649 34.6439 28.7649C32.8656 28.7649 31.2621 27.8149 30.4045 26.2998C32.171 24.8555 33.3011 22.6604 33.3011 20.2059C33.3011 19.8709 33.2777 19.5416 33.2368 19.2175C33.6906 19.0807 34.1614 19.0099 34.6439 19.0099ZM25.4313 14.2896C28.6936 14.2896 31.3478 16.9438 31.3478 20.2061C31.3478 23.4649 28.699 26.1168 25.4413 26.1223C25.4379 26.1223 25.4345 26.1222 25.4311 26.1222C25.4278 26.1222 25.4244 26.1223 25.4211 26.1223C22.1635 26.1167 19.515 23.4649 19.515 20.2061C19.5149 16.9437 22.169 14.2896 25.4313 14.2896ZM11.4714 23.8875C11.4714 21.198 13.6594 19.01 16.349 19.01C16.7864 19.01 17.215 19.0684 17.6303 19.1815C17.5865 19.5171 17.5615 19.8586 17.5615 20.2061C17.5615 22.7019 18.7306 24.9283 20.5485 26.3712C19.6778 27.8435 18.0919 28.7651 16.349 28.7651C13.6595 28.765 11.4714 26.5771 11.4714 23.8875ZM16.3506 30.7185C16.4397 30.7185 16.5285 30.7205 16.6173 30.7236C15.4272 32.4271 14.7599 34.4353 14.6991 36.543L11.0976 32.9414C12.4703 31.52 14.3437 30.7185 16.3506 30.7185ZM31.163 41.2584V39.443C31.163 38.9036 30.7257 38.4663 30.1864 38.4663C29.647 38.4663 29.2097 38.9036 29.2097 39.443V43.1373C27.0037 44.8479 23.9301 44.9175 21.6533 43.3462V39.443C21.6533 38.9036 21.216 38.4663 20.6767 38.4663C20.1373 38.4663 19.7 38.9036 19.7 39.443V41.5436L16.6478 38.4913V36.8589C16.6478 34.5413 17.5427 32.3543 19.1677 30.7009C20.8304 29.0098 23.0518 28.0777 25.4241 28.0756C25.4266 28.0756 25.429 28.0758 25.4314 28.0758C25.434 28.0758 25.4366 28.0756 25.4394 28.0756C27.824 28.0775 30.0544 29.0184 31.7201 30.7254C33.3294 32.3758 34.2156 34.5541 34.2156 36.8589V38.206L31.163 41.2584Z" fill="black"/>
<path d="M43.4308 8.03145C43.9702 8.03145 44.4074 7.59418 44.4074 7.05478C44.4074 6.51539 43.9702 6.07812 43.4308 6.07812C42.8914 6.07812 42.4541 6.51539 42.4541 7.05478C42.4541 7.59418 42.8914 8.03145 43.4308 8.03145Z" fill="#F9A351"/>
</g>
<defs>
<clipPath id="clip0_2546_10306">
<rect width="50" height="50" fill="white"/>
</clipPath>
</defs>
</svg>
