<svg width="50" height="50" viewBox="0 0 50 50" fill="none" xmlns="http://www.w3.org/2000/svg">
<g clip-path="url(#clip0_2546_10314)">
<path d="M46.8806 2.63672H4.11943C2.12373 2.63672 0.5 4.26035 0.5 6.25615V33.0434C0.5 35.0392 2.12373 36.6628 4.11943 36.6628H18.943V40.8015C16.1681 40.8023 13.9107 43.0602 13.9107 45.8353V46.3846C13.9107 46.9239 14.348 47.3611 14.8873 47.3611H36.1127C36.652 47.3611 37.0893 46.9239 37.0893 46.3846V45.8353C37.0893 43.0602 34.8319 40.8023 32.057 40.8015V36.6628H33.8039C34.3432 36.6628 34.7805 36.2256 34.7805 35.6862C34.7805 35.1469 34.3432 34.7097 33.8039 34.7097H4.11943C3.20059 34.7097 2.45312 33.9621 2.45312 33.0434V31.4781H48.5469V33.0434C48.5469 33.9622 47.7994 34.7097 46.8806 34.7097H42.7023C42.1631 34.7097 41.7258 35.1469 41.7258 35.6862C41.7258 36.2256 42.1631 36.6628 42.7023 36.6628H46.8806C48.8764 36.6628 50.5 35.0392 50.5 33.0434V6.25615C50.5 4.26035 48.8763 2.63672 46.8806 2.63672ZM35.1065 45.408H15.8935C16.1021 43.9107 17.3908 42.7546 18.9446 42.7546H32.0554C33.6092 42.7546 34.8979 43.9108 35.1065 45.408ZM30.1039 36.6628V40.8014H20.8962V36.6628H30.1039ZM4.11943 4.58984H24.5234V16.1718H17.1348V15.3554C17.1348 13.9528 16.4472 12.7085 15.392 11.9397C15.883 11.3675 16.1807 10.6248 16.1807 9.81338C16.1807 8.01006 14.7136 6.54297 12.9103 6.54297C11.1069 6.54297 9.63984 8.01006 9.63984 9.81338C9.63984 10.6247 9.9375 11.3674 10.4284 11.9396C9.37314 12.7084 8.68555 13.9528 8.68555 15.3554V16.1718H2.45312V6.25615C2.45312 5.3374 3.20059 4.58984 4.11943 4.58984ZM12.9103 11.1307C12.1839 11.1307 11.593 10.5397 11.593 9.81338C11.593 9.08701 12.1839 8.49609 12.9103 8.49609C13.6366 8.49609 14.2275 9.08701 14.2275 9.81338C14.2275 10.5397 13.6367 11.1307 12.9103 11.1307ZM10.6387 15.3554C10.6387 14.1028 11.6577 13.0839 12.9102 13.0839C14.1626 13.0839 15.1816 14.1028 15.1816 15.3554V16.1718H10.6387V15.3554ZM2.45312 18.1249H24.5234V29.525H17.1348V28.7089C17.1348 27.3064 16.4472 26.062 15.3921 25.2933C15.8831 24.721 16.1808 23.9783 16.1808 23.167C16.1808 21.3637 14.7137 19.8966 12.9104 19.8966C11.107 19.8966 9.63994 21.3637 9.63994 23.167C9.63994 23.9783 9.9376 24.721 10.4285 25.2932C9.37334 26.062 8.68564 27.3064 8.68564 28.7089V29.525H2.45312V18.1249ZM12.9103 24.4842C12.1839 24.4842 11.593 23.8933 11.593 23.1669C11.593 22.4405 12.1839 21.8496 12.9103 21.8496C13.6366 21.8496 14.2275 22.4405 14.2275 23.1669C14.2275 23.8933 13.6367 24.4842 12.9103 24.4842ZM10.6387 28.7089C10.6387 27.4564 11.6577 26.4374 12.9102 26.4374C14.1626 26.4374 15.1816 27.4564 15.1816 28.7089V29.525H10.6387V28.7089ZM34.4295 15.4243C34.4295 13.4127 36.066 11.7763 38.0775 11.7763C40.0891 11.7763 41.7256 13.4128 41.7256 15.4243C41.7256 17.4348 40.091 19.0704 38.0811 19.0723C38.0797 19.0723 38.0784 19.0722 38.077 19.0722C38.0759 19.0722 38.0747 19.0723 38.0735 19.0723C36.0639 19.0701 34.4295 17.4346 34.4295 15.4243ZM38.0776 21.0255C38.079 21.0255 38.0803 21.0254 38.0816 21.0254C41.152 21.0273 43.6494 23.5262 43.6494 26.5976V29.525H32.5059V26.5976C32.5059 23.5264 35.003 21.0275 38.0741 21.0254C38.0753 21.0254 38.0765 21.0255 38.0776 21.0255ZM45.6025 29.525V26.5976C45.6025 23.6663 43.9171 21.123 41.4651 19.8811C42.8092 18.8569 43.6788 17.2405 43.6788 15.4242C43.6788 12.3357 41.1661 9.82305 38.0776 9.82305C34.9892 9.82305 32.4765 12.3357 32.4765 15.4242C32.4765 17.2405 33.3461 18.8568 34.69 19.881C32.2383 21.1229 30.5527 23.6662 30.5527 26.5976V29.525H26.4766V4.58984H46.8806C47.7994 4.58984 48.5469 5.3374 48.5469 6.25615V29.5249L45.6025 29.525Z" fill="black"/>
<path d="M38.2451 36.6641C38.7845 36.6641 39.2217 36.2268 39.2217 35.6875C39.2217 35.1482 38.7845 34.7109 38.2451 34.7109C37.7058 34.7109 37.2686 35.1482 37.2686 35.6875C37.2686 36.2268 37.7058 36.6641 38.2451 36.6641Z" fill="#F9A351"/>
</g>
<defs>
<clipPath id="clip0_2546_10314">
<rect width="50" height="50" fill="white"/>
</clipPath>
</defs>
</svg>
