<svg width="50" height="50" viewBox="0 0 50 50" fill="none" xmlns="http://www.w3.org/2000/svg">
<path d="M45.2859 16.9534C44.3318 17.0785 43.6598 17.9533 43.7849 18.9072C44.1799 21.9209 43.1755 24.8802 41.0292 27.0266L28.7981 39.2579C27.9848 40.0712 26.9034 40.5191 25.7529 40.5191C24.6025 40.5191 23.5211 40.0712 22.7078 39.2579L10.8168 27.3669C7.03833 23.5886 7.03833 17.4409 10.8168 13.6628C14.595 9.88457 20.7427 9.88422 24.5208 13.6628C24.8477 13.9895 25.2909 14.1731 25.7529 14.1731C26.215 14.1731 26.658 13.9895 26.9849 13.6626L27.325 13.3224C29.2521 11.3954 31.9196 10.3646 34.643 10.4952C35.6071 10.5412 36.4204 9.79902 36.4664 8.83817C36.5124 7.87697 35.7706 7.06054 34.8094 7.01472C31.4919 6.85757 28.2379 7.96373 25.7122 10.0792C20.5493 6.09377 13.0845 6.46713 8.35252 11.1987C3.21583 16.3356 3.21583 24.6939 8.35252 29.8308L20.2436 41.7218C21.7625 43.2406 23.7575 44 25.7526 44C27.7476 44 29.7427 43.2406 31.2616 41.7218L43.4929 29.4903C46.4107 26.5724 47.7763 22.5501 47.2395 18.4544C47.1147 17.5005 46.2415 16.8276 45.2859 16.9534Z" fill="black"/>
<path d="M41.8975 13.4884C42.8597 13.4884 43.6398 12.7084 43.6398 11.7462C43.6398 10.7839 42.8597 10.0039 41.8975 10.0039C40.9353 10.0039 40.1553 10.7839 40.1553 11.7462C40.1553 12.7084 40.9353 13.4884 41.8975 13.4884Z" fill="#F9A351"/>
</svg>
