<svg width="94" height="73" viewBox="0 0 94 73" fill="none" xmlns="http://www.w3.org/2000/svg">
<path fill-rule="evenodd" clip-rule="evenodd" d="M30.5516 71.8067C25.1595 73.5384 18.9386 73.5044 13.8541 70.9154C2.11298 64.9223 -2.97144 49.4728 1.75407 33.1065C3.8733 25.7637 7.60757 18.6332 15.5034 11.4432C23.3992 4.24477 34.3542 0.000411987 39.4301 0.000411987C39.8572 -0.00632477 40.2815 0.0707245 40.6786 0.227165C41.0757 0.383606 41.4379 0.616356 41.7443 0.912071C42.0507 1.20778 42.2954 1.56065 42.4643 1.95045C42.6332 2.34026 42.723 2.75935 42.7285 3.18369C42.7285 4.94086 41.2246 6.36697 39.4301 6.36697C33.6278 6.36697 28.4409 9.50779 22.2969 14.1257C17.597 17.6655 13.9225 22.19 11.8973 26.1288C8.0092 33.6668 7.88101 44.2947 14.1618 47.1214C15.6199 45.4774 17.417 44.1641 19.431 43.2706C21.445 42.3772 23.6289 41.9245 25.8346 41.9433C36.0889 41.9433 42.1304 50.1349 41.8655 57.5541C41.6176 64.6422 37.0801 69.693 30.5516 71.8067ZM81.823 71.8067C76.431 73.5384 70.21 73.5044 65.1256 70.9154C53.3844 64.9223 48.3 49.4728 53.0255 33.1065C55.1448 25.7637 58.879 18.6332 66.7749 11.4432C74.6707 4.24477 85.6257 0.000411987 90.7015 0.000411987C91.1287 -0.00632477 91.553 0.0707245 91.9501 0.227165C92.3472 0.383606 92.7094 0.616356 93.0158 0.912071C93.3222 1.20778 93.5668 1.56065 93.7357 1.95045C93.9046 2.34026 93.9944 2.75935 94 3.18369C94 4.94086 92.496 6.36697 90.7015 6.36697C84.8993 6.36697 79.7124 9.50779 73.5683 14.1257C68.8684 17.6655 65.194 22.19 63.1688 26.1288C59.2807 33.6668 59.1525 44.2947 65.4332 47.1214C68.4497 43.8448 72.3891 41.9433 77.1061 41.9433C87.3603 41.9433 93.4018 50.1349 93.1369 57.5541C92.8891 64.6422 88.3516 69.693 81.823 71.8067Z" fill="#F9A351"/>
</svg>
