<svg width="50" height="50" viewBox="0 0 50 50" fill="none" xmlns="http://www.w3.org/2000/svg">
<g clip-path="url(#clip0_2546_10331)">
<path d="M48.2535 10.5934C47.2144 9.99336 46.004 9.83391 44.8447 10.1448C43.6858 10.4553 42.7169 11.1984 42.1168 12.2375L39.1719 17.3386V2.92969C39.1719 1.31416 37.8577 0 36.2422 0H3.42969C1.81416 0 0.5 1.31416 0.5 2.92969V39.7949C0.5 40.0539 0.602997 40.3023 0.786102 40.4854L10.0146 49.7139C10.1977 49.897 10.4461 50 10.7051 50H20.1453C20.6847 50 21.1219 49.5628 21.1219 49.0234C21.1219 48.484 20.6847 48.0469 20.1453 48.0469H11.6816V41.74C11.6816 40.1245 10.3675 38.8103 8.75195 38.8103H2.45312V2.92969C2.45312 2.39105 2.89105 1.95312 3.42969 1.95312H36.2422C36.7808 1.95312 37.2188 2.39105 37.2188 2.92969V20.7214L30.569 32.2395C30.5087 32.2281 30.4465 32.2212 30.3828 32.2212H9.28906C8.74966 32.2212 8.3125 32.6588 8.3125 33.1978C8.3125 33.7372 8.74966 34.1743 9.28906 34.1743H29.4516L28.0974 36.52C28.0242 36.6467 27.9807 36.7882 27.9693 36.9343L27.352 45.0348C27.3234 45.4094 27.5123 45.7672 27.8373 45.9549C27.9887 46.0423 28.1573 46.0857 28.3255 46.0857C28.5186 46.0857 28.7112 46.0285 28.8768 45.9152L35.5838 41.3303C35.7043 41.2476 35.805 41.1388 35.8783 41.0122L37.2188 38.6902V47.0703C37.2188 47.6089 36.7808 48.0469 36.2422 48.0469H28.9344C28.395 48.0469 27.9578 48.484 27.9578 49.0234C27.9578 49.5628 28.395 50 28.9344 50H36.2422C37.8577 50 39.1719 48.6858 39.1719 47.0703V35.3073L49.8977 16.7297C51.1363 14.5847 50.3985 11.8317 48.2535 10.5934ZM8.75195 40.7635C9.29059 40.7635 9.72852 41.2014 9.72852 41.74V46.6576L3.83443 40.7635H8.75195ZM29.7992 38.6299L33.2003 40.5937L29.4543 43.1545L29.7992 38.6299ZM34.6751 39.1899L30.2771 36.6508L41.6644 16.9277L46.0624 19.4668L34.6751 39.1899ZM48.2062 15.7532L47.0389 17.775L42.641 15.2359L43.8083 13.2141C44.5083 12.0018 46.0643 11.5849 47.2766 12.2849C48.4893 12.9848 48.9062 14.5409 48.2062 15.7532Z" fill="black"/>
<path d="M23.9846 38.666C23.9846 38.1266 23.5475 37.6895 23.0081 37.6895H14.5303C13.9909 37.6895 13.5537 38.1266 13.5537 38.666C13.5537 39.2054 13.9909 39.6426 14.5303 39.6426H23.0081C23.5475 39.6426 23.9846 39.2054 23.9846 38.666Z" fill="#F9A351"/>
<path d="M30.3831 26.75H15.4375C14.8981 26.75 14.4609 27.1872 14.4609 27.7266C14.4609 28.266 14.8981 28.7031 15.4375 28.7031H30.3831C30.9225 28.7031 31.3597 28.266 31.3597 27.7266C31.3597 27.1872 30.9225 26.75 30.3831 26.75Z" fill="#F9A351"/>
<path d="M9.28906 23.2363H30.3828C30.9222 23.2363 31.3594 22.7992 31.3594 22.2598C31.3594 21.7204 30.9222 21.2832 30.3828 21.2832H9.28906C8.74966 21.2832 8.3125 21.7204 8.3125 22.2598C8.3125 22.7992 8.74966 23.2363 9.28906 23.2363Z" fill="#F9A351"/>
<path d="M30.3828 10.3418H9.28906C8.74966 10.3418 8.3125 10.779 8.3125 11.3184C8.3125 11.8578 8.74966 12.2949 9.28906 12.2949H30.3828C30.9222 12.2949 31.3594 11.8578 31.3594 11.3184C31.3594 10.779 30.9222 10.3418 30.3828 10.3418Z" fill="#F9A351"/>
<path d="M30.3828 15.8125H23.0078C22.4688 15.8125 22.0312 16.2497 22.0312 16.7891C22.0312 17.3285 22.4688 17.7656 23.0078 17.7656H30.3828C30.9222 17.7656 31.3593 17.3285 31.3593 16.7891C31.3593 16.2497 30.9222 15.8125 30.3828 15.8125Z" fill="#F9A351"/>
<path d="M9.28906 17.7656H17.9641C18.5035 17.7656 18.9406 17.3285 18.9406 16.7891C18.9406 16.2497 18.5035 15.8125 17.9641 15.8125H9.28906C8.74966 15.8125 8.3125 16.2497 8.3125 16.7891C8.3125 17.3285 8.74966 17.7656 9.28906 17.7656Z" fill="#F9A351"/>
<path d="M9.28906 28.7031H10.8897C11.4291 28.7031 11.8663 28.266 11.8663 27.7266C11.8663 27.1872 11.4291 26.75 10.8897 26.75H9.28906C8.74966 26.75 8.3125 27.1872 8.3125 27.7266C8.3125 28.266 8.74966 28.7031 9.28906 28.7031Z" fill="#F9A351"/>
<path d="M24.5403 48.0469C24.2824 48.0469 24.0314 48.1514 23.8498 48.333C23.6671 48.5146 23.5637 48.7667 23.5637 49.0234C23.5637 49.2802 23.6671 49.5323 23.8498 49.7139C24.0314 49.8955 24.2824 50 24.5403 50C24.797 50 25.0492 49.8955 25.2307 49.7139C25.4123 49.5323 25.5168 49.2802 25.5168 49.0234C25.5168 48.7667 25.4123 48.5146 25.2307 48.333C25.0488 48.1514 24.797 48.0469 24.5403 48.0469Z" fill="#F9A351"/>
</g>
<defs>
<clipPath id="clip0_2546_10331">
<rect width="50" height="50" fill="white"/>
</clipPath>
</defs>
</svg>
