<svg width="50" height="50" viewBox="0 0 50 50" fill="none" xmlns="http://www.w3.org/2000/svg">
<g clip-path="url(#clip0_2546_10344)">
<path d="M41.7941 7.5478C41.7941 6.47085 40.9179 5.59468 39.841 5.59468H38.9099V1.96079C38.9099 1.34175 38.6269 0.772316 38.1332 0.398585C37.65 0.0326673 37.041 -0.0882311 36.4562 0.0646986L9.9893 5.61402C9.54154 5.69819 9.19662 6.1229 9.206 6.57847V48.0469C9.206 49.1239 10.0822 50 11.1591 50H39.8411C40.918 50 41.7942 49.1239 41.7942 48.0469V38.9221C41.7942 38.3828 41.357 37.9456 40.8176 37.9456C40.2784 37.9456 39.8411 38.3828 39.8411 38.9221V48.0469H11.1591V7.5478H39.8411V30.0238C39.8411 30.5631 40.2783 31.0003 40.8176 31.0003C41.3569 31.0003 41.7942 30.5631 41.7942 30.0238V7.5478H41.7941ZM36.8842 1.97056C36.9059 1.96607 36.9355 1.96685 36.9568 1.96089V5.59478H19.5989L36.8842 1.97056Z" fill="black"/>
<path d="M36.3839 17.459C36.3839 16.9196 35.9467 16.4824 35.4074 16.4824H15.5935C15.0542 16.4824 14.6169 16.9196 14.6169 17.459C14.6169 17.9983 15.0542 18.4355 15.5935 18.4355H35.4074C35.9466 18.4354 36.3839 17.9983 36.3839 17.459Z" fill="black"/>
<path d="M18.7605 20.5488C18.2212 20.5488 17.7839 20.986 17.7839 21.5254C17.7839 22.0647 18.2211 22.502 18.7605 22.502H32.2391C32.7784 22.502 33.2157 22.0647 33.2157 21.5254C33.2157 20.986 32.7785 20.5488 32.2391 20.5488H18.7605Z" fill="black"/>
<path d="M25.5897 40.9021C30.1086 40.9021 33.785 37.2258 33.785 32.7069C33.785 28.1881 30.1086 24.5117 25.5897 24.5117C21.0709 24.5117 17.3945 28.1881 17.3945 32.7069C17.3945 37.2258 21.0709 40.9021 25.5897 40.9021ZM25.5897 26.4648C29.0316 26.4648 31.8318 29.265 31.8318 32.7069C31.8318 36.1488 29.0316 38.949 25.5897 38.949C22.1479 38.949 19.3477 36.1488 19.3477 32.7069C19.3477 29.265 22.1479 26.4648 25.5897 26.4648Z" fill="#F9A351"/>
<path d="M34.8356 45.7303C35.3749 45.7303 35.8122 45.2931 35.8122 44.7537V44.2626H36.3033C36.8425 44.2626 37.2798 43.8254 37.2798 43.286C37.2798 42.7467 36.8426 42.3095 36.3033 42.3095H35.8122V41.8184C35.8122 41.279 35.375 40.8418 34.8356 40.8418C34.2963 40.8418 33.859 41.279 33.859 41.8184V42.3095H33.3679C32.8287 42.3095 32.3914 42.7467 32.3914 43.286C32.3914 43.8254 32.8286 44.2626 33.3679 44.2626H33.859V44.7537C33.859 45.2931 34.2963 45.7303 34.8356 45.7303Z" fill="black"/>
<path d="M16.3209 45.7303C16.8602 45.7303 17.2975 45.2931 17.2975 44.7537V44.2626H17.7886C18.3279 44.2626 18.7652 43.8254 18.7652 43.286C18.7652 42.7467 18.328 42.3095 17.7886 42.3095H17.2975V41.8184C17.2975 41.279 16.8603 40.8418 16.3209 40.8418C15.7817 40.8418 15.3444 41.279 15.3444 41.8184V42.3095H14.8533C14.314 42.3095 13.8767 42.7467 13.8767 43.286C13.8767 43.8254 14.3139 44.2626 14.8533 44.2626H15.3444V44.7537C15.3444 45.2931 15.7817 45.7303 16.3209 45.7303Z" fill="black"/>
<path d="M36.3035 11.1825H35.8124V10.6914C35.8124 10.1521 35.3752 9.71484 34.8358 9.71484C34.2966 9.71484 33.8593 10.1521 33.8593 10.6914V11.1825H33.3682C32.8289 11.1825 32.3916 11.6197 32.3916 12.1591C32.3916 12.6984 32.8288 13.1356 33.3682 13.1356H33.8593V13.6268C33.8593 14.1661 34.2965 14.6033 34.8358 14.6033C35.3751 14.6033 35.8124 14.1661 35.8124 13.6268V13.1356H36.3035C36.8428 13.1356 37.2801 12.6984 37.2801 12.1591C37.2801 11.6197 36.8429 11.1825 36.3035 11.1825Z" fill="black"/>
<path d="M16.3209 9.71484C15.7817 9.71484 15.3444 10.1521 15.3444 10.6914V11.1825H14.8533C14.314 11.1825 13.8767 11.6197 13.8767 12.1591C13.8767 12.6984 14.3139 13.1356 14.8533 13.1356H15.3444V13.6268C15.3444 14.1661 15.7816 14.6033 16.3209 14.6033C16.8602 14.6033 17.2975 14.1661 17.2975 13.6268V13.1356H17.7886C18.3279 13.1356 18.7652 12.6984 18.7652 12.1591C18.7652 11.6197 18.328 11.1825 17.7886 11.1825H17.2975V10.6914C17.2975 10.1521 16.8603 9.71484 16.3209 9.71484Z" fill="black"/>
<path d="M40.8171 35.457C41.3565 35.457 41.7937 35.0198 41.7937 34.4805C41.7937 33.9411 41.3565 33.5039 40.8171 33.5039C40.2778 33.5039 39.8406 33.9411 39.8406 34.4805C39.8406 35.0198 40.2778 35.457 40.8171 35.457Z" fill="#F9A351"/>
<path d="M27.6906 31.2434H27.0691V30.6219C27.0691 29.7822 26.3883 29.1016 25.5488 29.1016C24.7093 29.1016 24.0285 29.7822 24.0285 30.6219V31.2434H23.407C22.5675 31.2434 21.8867 31.924 21.8867 32.7637C21.8867 33.6033 22.5675 34.284 23.407 34.284H24.0285V34.9055C24.0285 35.7451 24.7093 36.4258 25.5488 36.4258C26.3883 36.4258 27.0691 35.7451 27.0691 34.9055V34.284H27.6906C28.5301 34.284 29.2109 33.6033 29.2109 32.7637C29.2109 31.924 28.5301 31.2434 27.6906 31.2434Z" fill="#F9A351"/>
</g>
<defs>
<clipPath id="clip0_2546_10344">
<rect width="50" height="50" fill="white"/>
</clipPath>
</defs>
</svg>
