<svg width="50" height="50" viewBox="0 0 50 50" fill="none" xmlns="http://www.w3.org/2000/svg">
<g clip-path="url(#clip0_2546_10359)">
<path d="M48.2515 26.0272C47.8514 25.4032 47.8514 24.5968 48.2515 23.9728L49.8907 21.4157C50.4749 20.5043 50.6493 19.3819 50.3691 18.3361C50.0889 17.2906 49.3766 16.4057 48.415 15.9088L47.6284 15.5022L48.9434 14.1872C51.017 12.1136 51.017 8.73939 48.9434 6.66566L43.8343 1.55653C41.7605 -0.517001 38.3866 -0.516903 36.3127 1.55653L34.9978 2.87144L34.5913 2.08498C34.0942 1.12331 33.2094 0.41107 32.1638 0.130881C31.1181 -0.149308 29.9957 0.0250169 29.0842 0.609224L26.5272 2.24846C25.9032 2.64858 25.0967 2.64848 24.4728 2.24846L21.9159 0.609322C21.0045 0.0252122 19.8821 -0.149405 18.8363 0.130979C17.7907 0.411168 16.9058 1.12341 16.4089 2.08507L15.0141 4.78315C14.6736 5.44158 13.9743 5.84433 13.2349 5.81044L10.2007 5.66913C9.11956 5.61893 8.06014 6.02911 7.29457 6.79447C6.52911 7.56004 6.11893 8.61917 6.16923 9.70066L6.31035 12.7348C6.34482 13.4752 5.94158 14.1734 5.28315 14.514L2.58498 15.9087C1.62331 16.4058 0.91107 17.2906 0.630881 18.3361C0.350692 19.3819 0.525017 20.5043 1.10922 21.4158L2.74856 23.9728C3.14858 24.5969 3.14858 25.4032 2.74846 26.0272L1.10932 28.5843C0.525115 29.4956 0.350692 30.618 0.630979 31.6638C0.911168 32.7094 1.62341 33.5943 2.58507 34.0912L3.37163 34.4977L2.05663 35.8127C-0.0170006 37.8864 -0.0170006 41.2605 2.05663 43.3343L7.16576 48.4434C8.20262 49.4802 9.5645 49.9986 10.9265 49.9986C12.2885 49.9986 13.6504 49.4802 14.6873 48.4434L16.0022 47.1285L16.4088 47.915C16.9059 48.8766 17.7907 49.5889 18.8363 49.869C19.1638 49.9567 19.4985 50 19.832 50C20.5639 49.9999 21.2898 49.792 21.9159 49.3907L24.4728 47.7515C25.0969 47.3513 25.9034 47.3513 26.5272 47.7515L29.0844 49.3907C29.9957 49.975 31.1181 50.1494 32.1639 49.869C33.2095 49.5889 34.0944 48.8766 34.5913 47.9151L35.9862 45.2168C36.3265 44.5583 37.0263 44.1548 37.7652 44.1896L40.7994 44.3307C41.8814 44.3814 42.94 43.9708 43.7055 43.2054C44.4709 42.4399 44.8811 41.3807 44.8308 40.2993L44.6897 37.2651C44.6552 36.5248 45.0584 35.8265 45.7169 35.486L48.4151 34.0913C49.3767 33.5942 50.089 32.7094 50.3691 31.6638C50.6493 30.618 50.475 29.4956 49.8908 28.5843L48.2515 26.0272ZM3.48189 32.3561C3.00033 32.1072 2.65783 31.6819 2.51759 31.1582C2.37715 30.6346 2.46114 30.0947 2.75373 29.6383L4.39287 27.0814C5.20365 25.8169 5.20365 24.183 4.39297 22.9186L2.75373 20.3616C2.46114 19.9051 2.37725 19.3654 2.51759 18.8418C2.65793 18.3182 3.00033 17.8927 3.48189 17.6437L6.18016 16.2489C7.51421 15.5592 8.33114 14.1441 8.26151 12.644L8.12029 9.60984C8.0951 9.06841 8.29237 8.55901 8.67579 8.17569C9.05911 7.79237 9.56909 7.59441 10.1099 7.6202L13.1441 7.76132C14.6463 7.8328 16.0593 7.01402 16.749 5.67987L18.1439 2.9817C18.3928 2.50013 18.8183 2.15764 19.3419 2.0174C19.8654 1.87696 20.4051 1.96085 20.8617 2.25354L23.4189 3.89278C24.6831 4.70326 26.3172 4.70326 27.5815 3.89278L30.1385 2.25354C30.595 1.96085 31.1345 1.87686 31.6584 2.0174C32.182 2.15773 32.6074 2.50013 32.8564 2.9817L33.5486 4.32073L30.7411 7.12828C25.7797 5.67675 20.431 6.34436 15.9907 8.9854C15.5271 9.26109 15.3747 9.86044 15.6505 10.3239C15.8332 10.6311 16.1577 10.8016 16.4908 10.8016C16.6605 10.8016 16.8325 10.7573 16.9891 10.6642C20.6502 8.48694 25.0016 7.80985 29.137 8.73246L9.23275 28.6367C8.31073 24.5051 8.98489 20.1591 11.1587 16.4984C11.434 16.0348 11.2814 15.4355 10.8176 15.1601C10.3539 14.8849 9.75465 15.0374 9.47925 15.5012C6.8424 19.9415 6.17831 25.2834 7.62877 30.2406L4.82092 33.0484L3.48189 32.3561ZM13.3061 47.0623C11.9939 48.3743 9.85905 48.3745 8.54698 47.0623L3.43775 41.9531C2.12558 40.641 2.12558 38.5061 3.43775 37.194L37.6939 2.93775C38.35 2.28167 39.2118 1.95362 40.0735 1.95362C40.9352 1.95362 41.797 2.28167 42.4531 2.93775L47.5622 8.04688C48.8744 9.35905 48.8744 11.4939 47.5622 12.806L13.3061 47.0623ZM41.7403 28.7608C41.0406 31.7965 39.5003 34.5716 37.2859 36.7859C35.0718 39 32.2973 40.5401 29.2621 41.24C26.8214 41.8028 24.2927 41.808 21.8637 41.267L41.7671 21.3636C42.308 23.7922 42.3029 26.3204 41.7403 28.7608ZM48.4824 31.1583C48.3421 31.6819 47.9997 32.1073 47.5181 32.3563L44.8199 33.7511C43.4858 34.4408 42.6689 35.8559 42.7385 37.3561L42.8796 40.3902C42.9048 40.9317 42.7076 41.441 42.3241 41.8244C41.9408 42.2077 41.4303 42.4053 40.89 42.3798L37.8559 42.2387C36.3557 42.1702 34.9405 42.9859 34.251 44.3201L32.856 47.0183C32.6071 47.4999 32.1818 47.8424 31.658 47.9826C31.1345 48.1231 30.5946 48.0391 30.1382 47.7465L27.5814 46.1071C26.3171 45.2966 24.683 45.2966 23.4188 46.1071L20.8616 47.7464C20.4052 48.0389 19.8654 48.1228 19.3418 47.9824C18.8183 47.8421 18.3927 47.4997 18.1437 47.018L17.4515 45.6791L20.2597 42.8709C21.9666 43.37 23.7308 43.6216 25.4986 43.6216C26.9064 43.6216 28.3166 43.4625 29.7009 43.1433C33.0932 42.3611 36.1937 40.6403 38.667 38.1671C41.1407 35.6935 42.8616 32.5926 43.6436 29.1996C44.3634 26.0772 44.2669 22.8258 43.3705 19.7603L46.1791 16.9517L47.5181 17.644C47.9997 17.8929 48.3422 18.3183 48.4824 18.8419C48.6229 19.3656 48.5389 19.9054 48.2463 20.3617L46.6071 22.9189C45.7966 24.1832 45.7966 25.8171 46.6071 27.0816L48.2463 29.6385C48.5389 30.0948 48.6229 30.6346 48.4824 31.1583Z" fill="black"/>
<path d="M24.6054 30.0277C24.3777 30.259 24.1373 30.5022 23.9243 30.7169L19.0911 25.8835C18.7097 25.5025 18.0915 25.5023 17.7099 25.8835C17.3285 26.2649 17.3285 26.8833 17.7099 27.2648L23.2296 32.7846C23.418 32.973 23.668 33.0707 23.9205 33.0707C24.0949 33.0707 24.2705 33.024 24.4275 32.9285C24.5552 32.8509 24.5854 32.8326 25.9973 31.398C26.3757 31.0135 26.3708 30.3952 25.9864 30.0168C25.602 29.6383 24.9836 29.6434 24.6054 30.0277Z" fill="#F9A351"/>
<path d="M11.595 43.0489L10.6428 44.0011L9.26174 42.62L10.0928 41.7889C10.4742 41.4075 10.4742 40.7891 10.0928 40.4077C9.71137 40.0264 9.09318 40.0264 8.71162 40.4077L7.88052 41.2388L6.4994 39.8576L7.4516 38.9054C7.83296 38.5241 7.83296 37.9057 7.4516 37.5242C7.07013 37.143 6.45194 37.143 6.07038 37.5242L4.42763 39.167C4.04626 39.5483 4.04626 40.1667 4.42763 40.5482L9.9521 46.0727C10.1428 46.2633 10.3927 46.3587 10.6427 46.3587C10.8926 46.3587 11.1425 46.2633 11.3332 46.0727L12.976 44.4299C13.3573 44.0486 13.3573 43.4302 12.976 43.0487C12.5946 42.6675 11.9764 42.6675 11.595 43.0489Z" fill="#F9A351"/>
<path d="M45.1908 9.45125L44.2386 10.4034L42.8574 9.02232L43.6885 8.19123C44.0699 7.80986 44.0699 7.19147 43.6885 6.81001C43.3071 6.42874 42.6889 6.42874 42.3073 6.81001L41.4762 7.6411L40.0951 6.25999L41.0473 5.30779C41.4287 4.92643 41.4287 4.30804 41.0473 3.92658C40.6658 3.54531 40.0476 3.54531 39.6661 3.92658L38.0233 5.56933C37.642 5.95069 37.642 6.56908 38.0233 6.95055L43.5478 12.475C43.7385 12.6657 43.9884 12.7611 44.2384 12.7611C44.4883 12.7611 44.7382 12.6657 44.9289 12.475L46.5717 10.8323C46.953 10.4509 46.953 9.83252 46.5717 9.45105C46.1904 9.06988 45.5722 9.06988 45.1908 9.45125Z" fill="#F9A351"/>
<path d="M20.4973 32.0132C20.0228 32.2695 19.8457 32.8619 20.102 33.3365C20.3505 33.7969 20.2653 34.3771 19.8946 34.7478C19.669 34.9733 19.3692 35.0976 19.0503 35.0976C18.7313 35.0976 18.4315 34.9733 18.2059 34.7477L15.7511 32.293C15.5256 32.0674 15.4014 31.7676 15.4014 31.4487C15.4014 31.1297 15.5256 30.8299 15.7512 30.6043C16.1227 30.2328 16.7039 30.1479 17.1647 30.3983C17.6385 30.6556 18.2315 30.4802 18.489 30.006C18.7464 29.532 18.5707 28.9392 18.0967 28.6817C16.8814 28.0217 15.3487 28.2443 14.3701 29.2231C13.7756 29.8175 13.4482 30.608 13.4482 31.4486C13.4482 32.2892 13.7757 33.0796 14.3701 33.6741L16.8248 36.1288C17.4192 36.7232 18.2097 37.0506 19.0503 37.0506C19.8909 37.0506 20.6813 36.7231 21.2758 36.1288C22.2521 35.1524 22.4761 33.6225 21.8205 32.4084C21.5645 31.9339 20.972 31.7569 20.4973 32.0132Z" fill="#F9A351"/>
<path d="M17.9922 37.3618L13.9119 36.1968L12.9228 32.7249C12.7751 32.2061 12.2343 31.9055 11.7161 32.0532C11.1974 32.201 10.8966 32.7412 11.0444 33.2599L11.7012 35.5656L9.39729 34.9077C8.8791 34.76 8.33825 35.0602 8.1901 35.5788C8.04205 36.0974 8.34255 36.6379 8.86113 36.7859L12.3311 37.7767L13.4941 41.8593C13.6163 42.2886 14.0076 42.5687 14.4328 42.5687C14.5214 42.5687 14.6114 42.5565 14.7008 42.531C15.2195 42.3833 15.5203 41.843 15.3725 41.3243L14.5418 38.408L17.4561 39.2401C17.5456 39.2657 17.6359 39.2779 17.7246 39.2779C18.1497 39.2779 18.5407 38.9982 18.6632 38.569C18.8113 38.0504 18.5109 37.5099 17.9922 37.3618Z" fill="#F9A351"/>
<path d="M25.1671 19.8074C24.7856 19.4262 24.1674 19.4262 23.7859 19.8074C23.4045 20.1888 23.4045 20.8072 23.7859 21.1887L27.9323 25.335C28.1141 25.5168 28.2733 25.7832 28.0761 26.3809C28.0143 26.568 27.9084 26.7346 27.7525 26.8903C27.5849 27.0574 27.4 27.1613 27.1867 27.2083C26.6759 27.3211 26.4576 27.2247 26.2533 27.0205L22.1038 22.871C21.7223 22.4897 21.1041 22.4897 20.7225 22.871C20.3412 23.2523 20.3412 23.8707 20.7225 24.2522L24.8721 28.4017C25.408 28.9376 26.0584 29.2071 26.8125 29.2071C27.0657 29.2071 27.3306 29.1766 27.6068 29.1158C28.1858 28.9883 28.6988 28.7049 29.1315 28.2733C29.5042 27.9016 29.7732 27.4708 29.9309 26.993C30.3185 25.819 30.0993 24.7397 29.3135 23.9539L25.1671 19.8074Z" fill="#F9A351"/>
<path d="M31.1883 18.1032C30.2593 18.5314 29.3551 18.8905 29.0762 18.9997C28.8071 19.0292 28.6417 18.8556 28.5815 18.7754C28.4981 18.6638 28.3306 18.3547 28.5784 17.8933C29.1217 16.8814 30.411 16.7288 30.4501 16.7245C30.9842 16.6747 31.3787 16.203 31.3323 15.6678C31.2857 15.1305 30.814 14.7326 30.275 14.7791C30.1791 14.7874 27.9121 15.0053 26.8575 16.9693C26.3247 17.9617 26.3862 19.1024 27.0183 19.9462C27.6113 20.738 28.5771 21.1042 29.5397 20.9011C29.5902 20.8906 30.8333 20.4176 32.0061 19.8769C32.3377 19.724 33.1452 19.4206 33.4826 19.9047C33.7362 20.2687 33.6796 20.964 33.1457 21.4979C32.5967 22.047 31.8494 22.3558 31.1401 22.3192C30.6012 22.295 30.1433 22.708 30.1167 23.2467C30.0903 23.7854 30.5054 24.2436 31.0442 24.2701C31.1107 24.2733 31.1771 24.2749 31.2439 24.2749C32.43 24.2749 33.6441 23.7617 34.5269 22.879C35.6911 21.7147 35.9258 19.9942 35.085 18.7878C34.4522 17.8801 33.0964 17.2235 31.1883 18.1032Z" fill="#F9A351"/>
<path d="M32.5872 12.3875C32.2057 12.0062 31.5875 12.0062 31.2059 12.3875C30.8246 12.7689 30.8246 13.3873 31.2059 13.7687L36.7304 19.2932C36.9212 19.4838 37.1711 19.5793 37.421 19.5793C37.6709 19.5793 37.9208 19.4838 38.1115 19.2932C38.4929 18.9118 38.4929 18.2935 38.1115 17.912L32.5872 12.3875Z" fill="#F9A351"/>
<path d="M37.831 7.53244C37.565 7.06318 36.969 6.89833 36.4999 7.16416C36.0305 7.43009 35.8658 8.02602 36.1316 8.49528L38.6083 12.8661L34.1721 10.4192C33.7 10.1587 33.1058 10.3303 32.8453 10.8026C32.5848 11.2749 32.7564 11.869 33.2287 12.1294L40.248 16.0012C40.4246 16.0972 40.6148 16.1442 40.8021 16.1442C41.0927 16.1442 41.3762 16.0314 41.5904 15.8146C41.9432 15.4577 42.0119 14.917 41.7588 14.4642L37.831 7.53244Z" fill="#F9A351"/>
<path d="M13.0156 13.4922C13.555 13.4922 13.9922 13.055 13.9922 12.5156C13.9922 11.9763 13.555 11.5391 13.0156 11.5391C12.4763 11.5391 12.0391 11.9763 12.0391 12.5156C12.0391 13.055 12.4763 13.4922 13.0156 13.4922Z" fill="#F9A351"/>
</g>
<defs>
<clipPath id="clip0_2546_10359">
<rect width="50" height="50" fill="white"/>
</clipPath>
</defs>
</svg>
